# xmcd CD database file
#
# Track frame offsets:
#	150
#	13742
#	27112
#	38895
#	50320
#	62050
#	76895
#	96035
#	106462
#	121017
#
# Disc length: 1824 seconds
#
# Revision: 2
# Processed by: cddbd v1.4PL0 Copyright (c) Steve Scherf et al.
# Submitted via: CDex 1.50
#
DISCID=71071e0a
DTITLE=Merle Haggard - Big City
DYEAR=1981
DGENRE=Country
TTITLE0=Big City
TTITLE1=My Favorite Memory
TTITLE2=Good Old American Guest
TTITLE3=I Think I'm Gonna Live Forever
TTITLE4=This Song Is Mine
TTITLE5=Stop The World
TTITLE6=Are The Good Times Really Over
TTITLE7=Texas Fiddle Song
TTITLE8=You Don't Have Very Far To Go
TTITLE9=I Always Get Lucky With You
EXTD=YEAR: 1981
EXTT0=
EXTT1=
EXTT2=
EXTT3=
EXTT4=
EXTT5=
EXTT6=
EXTT7=
EXTT8=
EXTT9=
PLAYORDER=
